<svg xmlns="http://www.w3.org/2000/svg" xmlns:xlink="http://www.w3.org/1999/xlink" version="1.1" x="0px" y="0px" viewBox="0 0 100 125" enable-background="new 0 0 100 100" xml:space="preserve"><path d="M49.95,5C25.178,5,5,25.178,5,49.95c0,5.094,0.899,9.889,2.397,14.484c0-1.798,0.499-3.296,1.398-4.495  c4.195-4.695,15.882-1.299,26.371,7.791c10.388,9.09,15.483,20.277,11.387,24.972c-0.699,0.899-1.598,1.299-2.697,1.698  c1.998,0.3,4.095,0.4,6.193,0.4c24.772,0,44.95-20.178,44.95-44.95C94.9,25.177,74.822,5,49.95,5z M88.307,48.551  c-2.297,2.897-5.993,4.495-10.688,4.495l0,0c-6.792,0-14.784-3.097-21.876-8.69c-5.893-4.495-10.289-9.989-12.686-15.683  c-2.497-5.893-2.198-11.088,0.699-14.784c2.297-2.897,5.993-4.495,10.688-4.495c6.792,0,14.784,3.097,21.876,8.69  c5.893,4.495,10.289,10.089,12.686,15.683C91.304,39.661,91.104,44.955,88.307,48.551z M74.523,20.183  c-6.493-4.994-13.984-8.091-20.178-8.091c-2.697,0-6.393,0.599-8.59,3.396c-2.198,2.797-2.297,7.092-0.3,12.087  c2.198,5.194,6.293,10.388,11.787,14.684c6.493,5.094,13.984,8.091,20.178,8.091c2.697,0,6.393-0.599,8.59-3.396  c2.198-2.797,2.297-7.092,0.3-12.087C84.312,29.573,80.017,24.378,74.523,20.183z M8.496,69.328c0,0,1.099,2.497,2.297,4.495  l4.495-4.595c0.699-0.799,1.299-0.999,1.898-0.899c0.599,0.2,1.398,0.799,2.497,1.698l1.998,1.898  c0.999,0.999,1.698,1.798,1.898,2.397s-0.1,1.199-0.799,1.998l-5.594,5.794c0,0,2.597,2.697,3.496,3.097l5.794-6.093  c0.699-0.699,1.299-0.899,1.898-0.899c0.599,0.1,1.398,0.699,2.497,1.698l2.797,2.697c0.999,0.999,1.698,1.798,1.798,2.397  s-0.1,1.199-0.799,1.898l-4.395,4.695l4.795,2.198l3.696-3.796c1.398-1.498,1.998-2.897,1.698-4.395  c-0.3-1.299-1.498-2.997-3.496-4.994l-2.697-2.597c-2.997-2.797-5.794-3.396-8.191-1.798c1.398-2.297,0.599-4.795-2.397-7.691  l-2.397-2.297c-1.998-1.898-3.596-2.897-4.795-3.097c-1.199-0.1-2.497,0.599-3.896,1.998L8.496,69.328z"/><text x="0" y="115" fill="#000000" font-size="5px" font-weight="bold" font-family="'Helvetica Neue', Helvetica, Arial-Unicode, Arial, Sans-serif">Created by Wes Breazell</text><text x="0" y="120" fill="#000000" font-size="5px" font-weight="bold" font-family="'Helvetica Neue', Helvetica, Arial-Unicode, Arial, Sans-serif">from the Noun Project</text></svg>